# xmcd CD database file
#
# Track frame offsets:
#	150
#	13102
#	25616
#	37222
#	47663
#	62729
#	73695
#	85290
#	96702
#	109943
#	121974
#	130993
#	141995
#	152191
#	163674
#	178807
#	190979
#	206473
#	217932
#	228188
#	238047
#	247429
#	257944
#	268485
#	279206
#	288345
#	299366
#	310141
#	319925
#	329547
#	340878
#
# Disc length: 4748 seconds
#
# Revision: 2
# Processed by: cddbd v1.5.2PL0 Copyright (c) Steve Scherf et al.
# Submitted via: jetAudio 7
#
DISCID=f1128a1f
DTITLE=Chet Atkins - The Early Years 1946-1957 Disc 4
DYEAR=1900
DGENRE=Country
TTITLE0=Get Up And Go
TTITLE1=South
TTITLE2=Alabama Jubilee
TTITLE3=Corrine, Corrina
TTITLE4=Indiana (Back Home Again In Indiana)
TTITLE5=Red Wing
TTITLE6=Frankie And Johnnie
TTITLE7=A Gay Ranchero
TTITLE8=Ballin' The Jack
TTITLE9=Honeysuckle Rose
TTITLE10=Darktown Strutters Ball
TTITLE11=The Old Spinning Wheel
TTITLE12=Silver Bell
TTITLE13=Under The Double Eagle
TTITLE14=The Birth Of The Blues
TTITLE15=Have You Ever Been Lonely
TTITLE16=Caravan
TTITLE17=Old Man River
TTITLE18=Mister Sandman
TTITLE19=New Spanish Two Step
TTITLE20=Cherry Pink And Apple Blossom White
TTITLE21=(The Wallflower) Dance With Me, Henry
TTITLE22=Darling, Je Vous Aime Beaucoup
TTITLE23=Tweedle Dee
TTITLE24=Hey, Mr. Guitar (Hey, Mr. Banjo)
TTITLE25=Unchained Melody
TTITLE26=Blues In The Night
TTITLE27=Somebody Stole My Gal
TTITLE28=Shine On Harvest Moon
TTITLE29=Intermezzo
TTITLE30=Tenderly
EXTD=
EXTT0=
EXTT1=
EXTT2=
EXTT3=
EXTT4=
EXTT5=
EXTT6=
EXTT7=
EXTT8=
EXTT9=
EXTT10=
EXTT11=
EXTT12=
EXTT13=
EXTT14=
EXTT15=
EXTT16=
EXTT17=
EXTT18=
EXTT19=
EXTT20=
EXTT21=
EXTT22=
EXTT23=
EXTT24=
EXTT25=
EXTT26=
EXTT27=
EXTT28=
EXTT29=
EXTT30=
PLAYORDER=
